<svg width="1080" height="1080" viewBox="0 0 1080 1080" fill="none" xmlns="http://www.w3.org/2000/svg">
<rect width="1080" height="1080" fill="white"/>
<path d="M218.435 515.563L163.023 445.19C158.968 440.04 162.636 432.483 169.19 432.483H339.935C346.184 432.483 349.928 439.431 346.491 444.65L271.05 559.231C268.323 563.373 262.486 563.98 258.965 560.488L231.831 533.574" stroke="#FF9606" stroke-width="10"/>
<path d="M306.76 536.33L375.629 430.043C379.664 423.814 375.194 415.59 367.772 415.59H274.814C269.644 415.59 265.453 411.399 265.453 406.229V388" stroke="#FF9606" stroke-width="10"/>
<path d="M204.042 524.721L130.78 430.707C125.989 424.559 130.37 415.59 138.164 415.59H223.464C228.634 415.59 232.826 411.399 232.826 406.229V388" stroke="#FF9606" stroke-width="10"/>
<path d="M306.447 531.949L378.723 628.021C383.365 634.191 378.963 643.011 371.242 643.011H274.897C269.726 643.011 265.535 647.202 265.535 652.373V670.601" stroke="#FF9606" stroke-width="10"/>
<path d="M204.042 520.142L137.538 628.761C133.718 634.999 138.207 643.011 145.522 643.011H223.464C228.634 643.011 232.826 647.202 232.826 652.373V670.601" stroke="#FF9606" stroke-width="10"/>
<path d="M293.009 544.347L344.859 612.193C348.807 617.359 345.124 624.809 338.622 624.809H173.867C167.671 624.809 163.917 617.968 167.246 612.742L240.082 498.406C242.801 494.138 248.789 493.519 252.322 497.142L278.247 523.719" stroke="#FF9606" stroke-width="10"/>
<path d="M429.8 565V554.5L473.1 502.3L475.1 508.2H430.6V495H489.5V505.5L446.3 557.7L444.3 551.8H491V565H429.8ZM533.485 565V554.5L532.485 552.2V533.4C532.485 530.067 531.452 527.467 529.385 525.6C527.385 523.733 524.285 522.8 520.085 522.8C517.218 522.8 514.385 523.267 511.585 524.2C508.852 525.067 506.518 526.267 504.585 527.8L498.985 516.9C501.918 514.833 505.452 513.233 509.585 512.1C513.718 510.967 517.918 510.4 522.185 510.4C530.385 510.4 536.752 512.333 541.285 516.2C545.818 520.067 548.085 526.1 548.085 534.3V565H533.485ZM517.085 565.8C512.885 565.8 509.285 565.1 506.285 563.7C503.285 562.233 500.985 560.267 499.385 557.8C497.785 555.333 496.985 552.567 496.985 549.5C496.985 546.3 497.752 543.5 499.285 541.1C500.885 538.7 503.385 536.833 506.785 535.5C510.185 534.1 514.618 533.4 520.085 533.4H534.385V542.5H521.785C518.118 542.5 515.585 543.1 514.185 544.3C512.852 545.5 512.185 547 512.185 548.8C512.185 550.8 512.952 552.4 514.485 553.6C516.085 554.733 518.252 555.3 520.985 555.3C523.585 555.3 525.918 554.7 527.985 553.5C530.052 552.233 531.552 550.4 532.485 548L534.885 555.2C533.752 558.667 531.685 561.3 528.685 563.1C525.685 564.9 521.818 565.8 517.085 565.8ZM575.104 554L575.504 535L600.604 511.2H619.204L595.104 535.7L587.004 542.3L575.104 554ZM562.204 565V490.8H577.804V565H562.204ZM602.304 565L584.104 542.4L593.904 530.3L621.204 565H602.304ZM660.243 565V554.5L659.243 552.2V533.4C659.243 530.067 658.21 527.467 656.143 525.6C654.143 523.733 651.043 522.8 646.843 522.8C643.976 522.8 641.143 523.267 638.343 524.2C635.61 525.067 633.276 526.267 631.343 527.8L625.743 516.9C628.676 514.833 632.21 513.233 636.343 512.1C640.476 510.967 644.676 510.4 648.943 510.4C657.143 510.4 663.51 512.333 668.043 516.2C672.576 520.067 674.843 526.1 674.843 534.3V565H660.243ZM643.843 565.8C639.643 565.8 636.043 565.1 633.043 563.7C630.043 562.233 627.743 560.267 626.143 557.8C624.543 555.333 623.743 552.567 623.743 549.5C623.743 546.3 624.51 543.5 626.043 541.1C627.643 538.7 630.143 536.833 633.543 535.5C636.943 534.1 641.376 533.4 646.843 533.4H661.143V542.5H648.543C644.876 542.5 642.343 543.1 640.943 544.3C639.61 545.5 638.943 547 638.943 548.8C638.943 550.8 639.71 552.4 641.243 553.6C642.843 554.733 645.01 555.3 647.743 555.3C650.343 555.3 652.676 554.7 654.743 553.5C656.81 552.233 658.31 550.4 659.243 548L661.643 555.2C660.51 558.667 658.443 561.3 655.443 563.1C652.443 564.9 648.576 565.8 643.843 565.8ZM710.962 565.8C704.628 565.8 699.695 564.2 696.162 561C692.628 557.733 690.862 552.9 690.862 546.5V499.3H706.462V546.3C706.462 548.567 707.062 550.333 708.262 551.6C709.462 552.8 711.095 553.4 713.162 553.4C715.628 553.4 717.728 552.733 719.462 551.4L723.662 562.4C722.062 563.533 720.128 564.4 717.862 565C715.662 565.533 713.362 565.8 710.962 565.8ZM682.562 524.4V512.4H719.862V524.4H682.562ZM767.019 565.6C761.752 565.6 756.885 564.733 752.419 563C747.952 561.2 744.085 558.7 740.819 555.5C737.552 552.3 734.985 548.533 733.119 544.2C731.319 539.867 730.419 535.133 730.419 530C730.419 524.867 731.319 520.133 733.119 515.8C734.985 511.467 737.552 507.7 740.819 504.5C744.152 501.3 748.052 498.833 752.519 497.1C756.985 495.3 761.852 494.4 767.119 494.4C772.185 494.4 776.952 495.267 781.419 497C785.885 498.667 789.652 501.2 792.719 504.6L788.019 509.3C785.152 506.367 781.985 504.267 778.519 503C775.052 501.667 771.319 501 767.319 501C763.119 501 759.219 501.733 755.619 503.2C752.019 504.6 748.885 506.633 746.219 509.3C743.552 511.9 741.452 514.967 739.919 518.5C738.452 521.967 737.719 525.8 737.719 530C737.719 534.2 738.452 538.067 739.919 541.6C741.452 545.067 743.552 548.133 746.219 550.8C748.885 553.4 752.019 555.433 755.619 556.9C759.219 558.3 763.119 559 767.319 559C771.319 559 775.052 558.333 778.519 557C781.985 555.667 785.152 553.533 788.019 550.6L792.719 555.3C789.652 558.7 785.885 561.267 781.419 563C776.952 564.733 772.152 565.6 767.019 565.6ZM833.794 512C838.06 512 841.794 512.833 844.994 514.5C848.26 516.1 850.794 518.567 852.594 521.9C854.46 525.233 855.394 529.433 855.394 534.5V565H848.294V535.2C848.294 529.667 846.894 525.5 844.094 522.7C841.36 519.833 837.494 518.4 832.494 518.4C828.76 518.4 825.494 519.167 822.694 520.7C819.96 522.167 817.827 524.333 816.294 527.2C814.827 530 814.094 533.4 814.094 537.4V565H806.994V490.8H814.094V526.9L812.694 524.2C814.36 520.4 817.027 517.433 820.694 515.3C824.36 513.1 828.727 512 833.794 512ZM907.472 565V553.4L907.172 551.5V532.1C907.172 527.633 905.905 524.2 903.372 521.8C900.905 519.4 897.205 518.2 892.272 518.2C888.872 518.2 885.639 518.767 882.572 519.9C879.505 521.033 876.905 522.533 874.772 524.4L871.572 519.1C874.239 516.833 877.439 515.1 881.172 513.9C884.905 512.633 888.839 512 892.972 512C899.772 512 905.005 513.7 908.672 517.1C912.405 520.433 914.272 525.533 914.272 532.4V565H907.472ZM889.372 565.5C885.439 565.5 882.005 564.867 879.072 563.6C876.205 562.267 874.005 560.467 872.472 558.2C870.939 555.867 870.172 553.2 870.172 550.2C870.172 547.467 870.805 545 872.072 542.8C873.405 540.533 875.539 538.733 878.472 537.4C881.472 536 885.472 535.3 890.472 535.3H908.572V540.6H890.672C885.605 540.6 882.072 541.5 880.072 543.3C878.139 545.1 877.172 547.333 877.172 550C877.172 553 878.339 555.4 880.672 557.2C883.005 559 886.272 559.9 890.472 559.9C894.472 559.9 897.905 559 900.772 557.2C903.705 555.333 905.839 552.667 907.172 549.2L908.772 554.1C907.439 557.567 905.105 560.333 901.772 562.4C898.505 564.467 894.372 565.5 889.372 565.5ZM933.556 565V512.5H940.656V565H933.556ZM937.156 500.9C935.69 500.9 934.456 500.4 933.456 499.4C932.456 498.4 931.956 497.2 931.956 495.8C931.956 494.4 932.456 493.233 933.456 492.3C934.456 491.3 935.69 490.8 937.156 490.8C938.623 490.8 939.856 491.267 940.856 492.2C941.856 493.133 942.356 494.3 942.356 495.7C942.356 497.167 941.856 498.4 940.856 499.4C939.923 500.4 938.69 500.9 937.156 500.9ZM987.212 512C991.478 512 995.212 512.833 998.412 514.5C1001.68 516.1 1004.21 518.567 1006.01 521.9C1007.88 525.233 1008.81 529.433 1008.81 534.5V565H1001.71V535.2C1001.71 529.667 1000.31 525.5 997.512 522.7C994.778 519.833 990.912 518.4 985.912 518.4C982.178 518.4 978.912 519.167 976.112 520.7C973.378 522.167 971.245 524.333 969.712 527.2C968.245 530 967.512 533.4 967.512 537.4V565H960.412V512.5H967.212V526.9L966.112 524.2C967.778 520.4 970.445 517.433 974.112 515.3C977.778 513.1 982.145 512 987.212 512Z" fill="#17163E"/>
</svg>
