<svg width="1080" height="1080" viewBox="0 0 1080 1080" fill="none" xmlns="http://www.w3.org/2000/svg">
<rect width="1080" height="1080" fill="white"/>
<path d="M218.435 515.563L163.023 445.19C158.968 440.04 162.636 432.483 169.19 432.483H339.935C346.184 432.483 349.928 439.431 346.491 444.65L271.05 559.231C268.323 563.373 262.486 563.98 258.965 560.488L231.831 533.574" stroke="#FF9606" stroke-width="10"/>
<path d="M306.76 536.33L375.629 430.043C379.664 423.814 375.194 415.59 367.772 415.59H274.814C269.644 415.59 265.453 411.399 265.453 406.229V388" stroke="#FF9606" stroke-width="10"/>
<path d="M204.042 524.721L130.78 430.707C125.989 424.559 130.37 415.59 138.164 415.59H223.464C228.634 415.59 232.826 411.399 232.826 406.229V388" stroke="#FF9606" stroke-width="10"/>
<path d="M306.447 531.949L378.723 628.021C383.365 634.191 378.963 643.011 371.242 643.011H274.897C269.726 643.011 265.535 647.202 265.535 652.373V670.601" stroke="#FF9606" stroke-width="10"/>
<path d="M204.042 520.142L137.538 628.761C133.718 634.999 138.207 643.011 145.522 643.011H223.464C228.634 643.011 232.826 647.202 232.826 652.373V670.601" stroke="#FF9606" stroke-width="10"/>
<path d="M293.009 544.347L344.859 612.193C348.807 617.359 345.124 624.809 338.622 624.809H173.867C167.671 624.809 163.917 617.968 167.246 612.742L240.082 498.406C242.801 494.138 248.789 493.519 252.322 497.142L278.247 523.719" stroke="#FF9606" stroke-width="10"/>
<path d="M816.263 1023.39L831.765 999.464C832.673 998.062 831.667 996.21 829.996 996.21H809.072C807.909 996.21 806.965 995.267 806.965 994.103V990" stroke="#FF9606" stroke-width="2.25092"/>
<path d="M793.142 1020.77L776.651 999.613C775.573 998.229 776.559 996.21 778.314 996.21H797.514C798.678 996.21 799.621 995.267 799.621 994.103V990" stroke="#FF9606" stroke-width="2.25092"/>
<path d="M816.193 1022.4L832.462 1044.03C833.506 1045.42 832.515 1047.4 830.778 1047.4H809.091C807.927 1047.4 806.984 1048.34 806.984 1049.51V1053.61" stroke="#FF9606" stroke-width="2.25092"/>
<path d="M793.142 1019.74L778.173 1044.19C777.313 1045.6 778.323 1047.4 779.97 1047.4H797.514C798.678 1047.4 799.621 1048.34 799.621 1049.51V1053.61" stroke="#FF9606" stroke-width="2.25092"/>
<path d="M65.5584 1011.03L51.5325 993.216C50.5062 991.913 51.4346 990 53.0936 990H96.3127C97.8945 990 98.8422 991.759 97.9723 993.08L78.8764 1022.08C78.1861 1023.13 76.7087 1023.28 75.8175 1022.4L68.9493 1015.59" stroke="#FF9606" stroke-width="2.53122"/>
<path d="M84.4349 1042.42L97.5593 1059.59C98.5586 1060.9 97.6262 1062.78 95.9805 1062.78H54.2775C52.7091 1062.78 51.759 1061.05 52.6016 1059.73L71.038 1030.79C71.7262 1029.71 73.2418 1029.55 74.1362 1030.47L80.6982 1037.2" stroke="#FF9606" stroke-width="2.53122"/>
<path d="M327.769 1019.65L309.329 996.228C307.98 994.515 309.201 992 311.382 992H368.2C370.28 992 371.525 994.312 370.382 996.049L345.277 1034.18C344.37 1035.56 342.428 1035.76 341.256 1034.6L332.227 1025.64" stroke="#FF9606" stroke-width="3.32768"/>
<path d="M352.585 1029.22L369.839 1051.8C371.153 1053.52 369.927 1056 367.763 1056H312.938C310.876 1056 309.627 1053.72 310.735 1051.98L334.972 1013.94C335.877 1012.52 337.87 1012.31 339.045 1013.52L347.672 1022.36" stroke="#FF9606" stroke-width="3.32768"/>
<path d="M113.376 1035.38C111.648 1035.38 110.037 1035.11 108.544 1034.55C107.072 1033.98 105.792 1033.17 104.704 1032.12C103.616 1031.07 102.763 1029.85 102.144 1028.44C101.547 1027.03 101.248 1025.49 101.248 1023.8C101.248 1022.11 101.547 1020.57 102.144 1019.16C102.763 1017.75 103.616 1016.53 104.704 1015.48C105.813 1014.43 107.104 1013.63 108.576 1013.08C110.048 1012.5 111.659 1012.22 113.408 1012.22C115.349 1012.22 117.099 1012.56 118.656 1013.24C120.235 1013.9 121.557 1014.88 122.624 1016.18L119.296 1019.26C118.528 1018.38 117.675 1017.73 116.736 1017.3C115.797 1016.86 114.773 1016.63 113.664 1016.63C112.619 1016.63 111.659 1016.8 110.784 1017.14C109.909 1017.49 109.152 1017.98 108.512 1018.62C107.872 1019.26 107.371 1020.01 107.008 1020.89C106.667 1021.76 106.496 1022.73 106.496 1023.8C106.496 1024.87 106.667 1025.84 107.008 1026.71C107.371 1027.59 107.872 1028.34 108.512 1028.98C109.152 1029.62 109.909 1030.11 110.784 1030.46C111.659 1030.8 112.619 1030.97 113.664 1030.97C114.773 1030.97 115.797 1030.75 116.736 1030.33C117.675 1029.88 118.528 1029.21 119.296 1028.31L122.624 1031.38C121.557 1032.69 120.235 1033.68 118.656 1034.36C117.099 1035.04 115.339 1035.38 113.376 1035.38ZM136.237 1017.53C137.602 1017.53 138.818 1017.81 139.885 1018.36C140.973 1018.89 141.826 1019.73 142.445 1020.86C143.063 1021.97 143.373 1023.39 143.373 1025.14V1035H138.381V1025.91C138.381 1024.53 138.071 1023.5 137.453 1022.84C136.855 1022.18 136.002 1021.85 134.893 1021.85C134.103 1021.85 133.389 1022.02 132.749 1022.36C132.13 1022.68 131.639 1023.18 131.277 1023.86C130.935 1024.55 130.765 1025.42 130.765 1026.49V1035H125.773V1011.26H130.765V1022.55L129.645 1021.11C130.263 1019.96 131.149 1019.07 132.301 1018.46C133.453 1017.84 134.765 1017.53 136.237 1017.53ZM158.458 1035V1031.64L158.138 1030.9V1024.89C158.138 1023.82 157.807 1022.99 157.146 1022.39C156.506 1021.79 155.514 1021.5 154.17 1021.5C153.252 1021.5 152.346 1021.65 151.45 1021.94C150.575 1022.22 149.828 1022.61 149.21 1023.1L147.418 1019.61C148.356 1018.95 149.487 1018.43 150.81 1018.07C152.132 1017.71 153.476 1017.53 154.842 1017.53C157.466 1017.53 159.503 1018.15 160.954 1019.38C162.404 1020.62 163.13 1022.55 163.13 1025.18V1035H158.458ZM153.21 1035.26C151.866 1035.26 150.714 1035.03 149.754 1034.58C148.794 1034.11 148.058 1033.49 147.546 1032.7C147.034 1031.91 146.778 1031.02 146.778 1030.04C146.778 1029.02 147.023 1028.12 147.514 1027.35C148.026 1026.58 148.826 1025.99 149.914 1025.56C151.002 1025.11 152.42 1024.89 154.17 1024.89H158.746V1027.8H154.714C153.54 1027.8 152.73 1027.99 152.282 1028.38C151.855 1028.76 151.642 1029.24 151.642 1029.82C151.642 1030.46 151.887 1030.97 152.378 1031.35C152.89 1031.71 153.583 1031.9 154.458 1031.9C155.29 1031.9 156.036 1031.7 156.698 1031.32C157.359 1030.91 157.839 1030.33 158.138 1029.56L158.906 1031.86C158.543 1032.97 157.882 1033.82 156.922 1034.39C155.962 1034.97 154.724 1035.26 153.21 1035.26ZM167.648 1035V1017.78H172.64V1035H167.648ZM170.144 1015.38C169.226 1015.38 168.48 1015.12 167.904 1014.58C167.328 1014.05 167.04 1013.39 167.04 1012.6C167.04 1011.81 167.328 1011.15 167.904 1010.62C168.48 1010.08 169.226 1009.82 170.144 1009.82C171.061 1009.82 171.808 1010.07 172.384 1010.58C172.96 1011.07 173.248 1011.71 173.248 1012.5C173.248 1013.34 172.96 1014.03 172.384 1014.58C171.829 1015.12 171.082 1015.38 170.144 1015.38ZM187.737 1017.53C189.102 1017.53 190.318 1017.81 191.385 1018.36C192.473 1018.89 193.326 1019.73 193.945 1020.86C194.563 1021.97 194.873 1023.39 194.873 1025.14V1035H189.881V1025.91C189.881 1024.53 189.571 1023.5 188.953 1022.84C188.355 1022.18 187.502 1021.85 186.393 1021.85C185.603 1021.85 184.889 1022.02 184.249 1022.36C183.63 1022.68 183.139 1023.18 182.777 1023.86C182.435 1024.55 182.265 1025.42 182.265 1026.49V1035H177.273V1017.78H182.041V1022.55L181.145 1021.11C181.763 1019.96 182.649 1019.07 183.801 1018.46C184.953 1017.84 186.265 1017.53 187.737 1017.53Z" fill="black"/>
<path d="M381.216 1035V1031.64L395.072 1014.94L395.712 1016.82H381.472V1012.6H400.32V1015.96L386.496 1032.66L385.856 1030.78H400.8V1035H381.216ZM407.805 1041.21C406.525 1039.27 405.533 1037.03 404.829 1034.49C404.146 1031.93 403.805 1029.18 403.805 1026.23C403.805 1023.29 404.146 1020.54 404.829 1017.98C405.533 1015.39 406.525 1013.15 407.805 1011.26H412.573C411.229 1013.67 410.247 1016.1 409.629 1018.55C409.01 1020.98 408.701 1023.54 408.701 1026.23C408.701 1028.92 409.01 1031.49 409.629 1033.94C410.247 1036.38 411.229 1038.8 412.573 1041.21H407.805ZM421.002 1035.26C419.53 1035.26 418.112 1035.09 416.746 1034.74C415.402 1034.38 414.336 1033.93 413.546 1033.4L415.21 1029.82C416 1030.31 416.928 1030.71 417.994 1031.03C419.082 1031.33 420.149 1031.48 421.194 1031.48C422.346 1031.48 423.157 1031.34 423.626 1031.06C424.117 1030.79 424.362 1030.4 424.362 1029.91C424.362 1029.51 424.17 1029.21 423.786 1029.02C423.424 1028.8 422.933 1028.64 422.314 1028.54C421.696 1028.43 421.013 1028.32 420.266 1028.22C419.541 1028.11 418.805 1027.97 418.058 1027.8C417.312 1027.61 416.629 1027.33 416.01 1026.97C415.392 1026.61 414.89 1026.11 414.506 1025.5C414.144 1024.88 413.962 1024.08 413.962 1023.1C413.962 1022.01 414.272 1021.05 414.89 1020.22C415.53 1019.38 416.448 1018.73 417.642 1018.26C418.837 1017.77 420.266 1017.53 421.93 1017.53C423.104 1017.53 424.298 1017.66 425.514 1017.91C426.73 1018.17 427.744 1018.54 428.554 1019.03L426.89 1022.58C426.058 1022.09 425.216 1021.76 424.362 1021.59C423.53 1021.4 422.72 1021.3 421.93 1021.3C420.821 1021.3 420.01 1021.45 419.498 1021.75C418.986 1022.05 418.73 1022.43 418.73 1022.9C418.73 1023.33 418.912 1023.65 419.274 1023.86C419.658 1024.08 420.16 1024.25 420.778 1024.38C421.397 1024.5 422.069 1024.62 422.794 1024.73C423.541 1024.81 424.288 1024.95 425.034 1025.14C425.781 1025.34 426.453 1025.61 427.05 1025.98C427.669 1026.32 428.17 1026.8 428.554 1027.42C428.938 1028.01 429.13 1028.8 429.13 1029.78C429.13 1030.85 428.81 1031.8 428.17 1032.63C427.53 1033.44 426.602 1034.08 425.386 1034.55C424.192 1035.02 422.73 1035.26 421.002 1035.26ZM439.25 1035.26C437.224 1035.26 435.645 1034.74 434.514 1033.72C433.384 1032.67 432.818 1031.13 432.818 1029.08V1013.98H437.81V1029.02C437.81 1029.74 438.002 1030.31 438.386 1030.71C438.77 1031.1 439.293 1031.29 439.954 1031.29C440.744 1031.29 441.416 1031.07 441.97 1030.65L443.314 1034.17C442.802 1034.53 442.184 1034.81 441.458 1035C440.754 1035.17 440.018 1035.26 439.25 1035.26ZM430.162 1022.01V1018.17H442.098V1022.01H430.162ZM456.677 1035V1031.64L456.357 1030.9V1024.89C456.357 1023.82 456.026 1022.99 455.365 1022.39C454.725 1021.79 453.733 1021.5 452.389 1021.5C451.471 1021.5 450.565 1021.65 449.669 1021.94C448.794 1022.22 448.047 1022.61 447.429 1023.1L445.637 1019.61C446.575 1018.95 447.706 1018.43 449.029 1018.07C450.351 1017.71 451.695 1017.53 453.061 1017.53C455.685 1017.53 457.722 1018.15 459.173 1019.38C460.623 1020.62 461.349 1022.55 461.349 1025.18V1035H456.677ZM451.429 1035.26C450.085 1035.26 448.933 1035.03 447.973 1034.58C447.013 1034.11 446.277 1033.49 445.765 1032.7C445.253 1031.91 444.997 1031.02 444.997 1030.04C444.997 1029.02 445.242 1028.12 445.733 1027.35C446.245 1026.58 447.045 1025.99 448.133 1025.56C449.221 1025.11 450.639 1024.89 452.389 1024.89H456.965V1027.8H452.933C451.759 1027.8 450.949 1027.99 450.501 1028.38C450.074 1028.76 449.861 1029.24 449.861 1029.82C449.861 1030.46 450.106 1030.97 450.597 1031.35C451.109 1031.71 451.802 1031.9 452.677 1031.9C453.509 1031.9 454.255 1031.7 454.917 1031.32C455.578 1030.91 456.058 1030.33 456.357 1029.56L457.125 1031.86C456.762 1032.97 456.101 1033.82 455.141 1034.39C454.181 1034.97 452.943 1035.26 451.429 1035.26ZM476.331 1017.53C477.696 1017.53 478.912 1017.81 479.979 1018.36C481.067 1018.89 481.92 1019.73 482.539 1020.86C483.157 1021.97 483.467 1023.39 483.467 1025.14V1035H478.475V1025.91C478.475 1024.53 478.165 1023.5 477.547 1022.84C476.949 1022.18 476.096 1021.85 474.987 1021.85C474.197 1021.85 473.483 1022.02 472.843 1022.36C472.224 1022.68 471.733 1023.18 471.371 1023.86C471.029 1024.55 470.859 1025.42 470.859 1026.49V1035H465.867V1017.78H470.635V1022.55L469.739 1021.11C470.357 1019.96 471.243 1019.07 472.395 1018.46C473.547 1017.84 474.859 1017.53 476.331 1017.53ZM495.509 1035.26C493.887 1035.26 492.426 1034.89 491.125 1034.17C489.823 1033.42 488.789 1032.39 488.021 1031.06C487.274 1029.74 486.901 1028.18 486.901 1026.39C486.901 1024.58 487.274 1023.01 488.021 1021.69C488.789 1020.37 489.823 1019.34 491.125 1018.62C492.426 1017.89 493.887 1017.53 495.509 1017.53C496.959 1017.53 498.229 1017.85 499.317 1018.49C500.405 1019.13 501.247 1020.1 501.845 1021.4C502.442 1022.7 502.741 1024.37 502.741 1026.39C502.741 1028.4 502.453 1030.06 501.877 1031.38C501.301 1032.69 500.469 1033.66 499.381 1034.3C498.314 1034.94 497.023 1035.26 495.509 1035.26ZM496.373 1031.16C497.183 1031.16 497.919 1030.97 498.581 1030.58C499.242 1030.2 499.765 1029.66 500.149 1028.95C500.554 1028.23 500.757 1027.37 500.757 1026.39C500.757 1025.39 500.554 1024.54 500.149 1023.83C499.765 1023.13 499.242 1022.58 498.581 1022.2C497.919 1021.82 497.183 1021.62 496.373 1021.62C495.541 1021.62 494.794 1021.82 494.133 1022.2C493.471 1022.58 492.938 1023.13 492.533 1023.83C492.149 1024.54 491.957 1025.39 491.957 1026.39C491.957 1027.37 492.149 1028.23 492.533 1028.95C492.938 1029.66 493.471 1030.2 494.133 1030.58C494.794 1030.97 495.541 1031.16 496.373 1031.16ZM500.885 1035V1031.48L500.981 1026.36L500.661 1021.27V1011.26H505.653V1035H500.885ZM510.273 1035V1017.78H515.265V1035H510.273ZM512.769 1015.38C511.851 1015.38 511.105 1015.12 510.529 1014.58C509.953 1014.05 509.665 1013.39 509.665 1012.6C509.665 1011.81 509.953 1011.15 510.529 1010.62C511.105 1010.08 511.851 1009.82 512.769 1009.82C513.686 1009.82 514.433 1010.07 515.009 1010.58C515.585 1011.07 515.873 1011.71 515.873 1012.5C515.873 1013.34 515.585 1014.03 515.009 1014.58C514.454 1015.12 513.707 1015.38 512.769 1015.38ZM530.362 1017.53C531.727 1017.53 532.943 1017.81 534.01 1018.36C535.098 1018.89 535.951 1019.73 536.57 1020.86C537.188 1021.97 537.498 1023.39 537.498 1025.14V1035H532.506V1025.91C532.506 1024.53 532.196 1023.5 531.578 1022.84C530.98 1022.18 530.127 1021.85 529.018 1021.85C528.228 1021.85 527.514 1022.02 526.874 1022.36C526.255 1022.68 525.764 1023.18 525.402 1023.86C525.06 1024.55 524.89 1025.42 524.89 1026.49V1035H519.898V1017.78H524.666V1022.55L523.77 1021.11C524.388 1019.96 525.274 1019.07 526.426 1018.46C527.578 1017.84 528.89 1017.53 530.362 1017.53ZM550.244 1041.46C548.622 1041.46 547.054 1041.26 545.54 1040.86C544.046 1040.47 542.798 1039.89 541.796 1039.1L543.78 1035.51C544.505 1036.11 545.422 1036.58 546.532 1036.92C547.662 1037.28 548.772 1037.46 549.86 1037.46C551.63 1037.46 552.91 1037.07 553.7 1036.28C554.51 1035.49 554.916 1034.32 554.916 1032.76V1030.17L555.236 1025.85L555.172 1021.5V1017.78H559.908V1032.12C559.908 1035.32 559.076 1037.68 557.412 1039.19C555.748 1040.71 553.358 1041.46 550.244 1041.46ZM549.476 1034.17C547.876 1034.17 546.425 1033.83 545.124 1033.14C543.844 1032.44 542.809 1031.47 542.02 1030.23C541.252 1028.97 540.868 1027.51 540.868 1025.85C540.868 1024.16 541.252 1022.7 542.02 1021.46C542.809 1020.21 543.844 1019.23 545.124 1018.55C546.425 1017.87 547.876 1017.53 549.476 1017.53C550.926 1017.53 552.206 1017.83 553.316 1018.42C554.425 1019 555.289 1019.91 555.908 1021.14C556.526 1022.36 556.836 1023.93 556.836 1025.85C556.836 1027.75 556.526 1029.31 555.908 1030.55C555.289 1031.77 554.425 1032.67 553.316 1033.27C552.206 1033.87 550.926 1034.17 549.476 1034.17ZM550.468 1030.07C551.342 1030.07 552.121 1029.9 552.804 1029.56C553.486 1029.2 554.02 1028.7 554.404 1028.06C554.788 1027.42 554.98 1026.68 554.98 1025.85C554.98 1024.99 554.788 1024.26 554.404 1023.64C554.02 1023 553.486 1022.51 552.804 1022.17C552.121 1021.81 551.342 1021.62 550.468 1021.62C549.593 1021.62 548.814 1021.81 548.132 1022.17C547.449 1022.51 546.905 1023 546.5 1023.64C546.116 1024.26 545.924 1024.99 545.924 1025.85C545.924 1026.68 546.116 1027.42 546.5 1028.06C546.905 1028.7 547.449 1029.2 548.132 1029.56C548.814 1029.9 549.593 1030.07 550.468 1030.07ZM574.225 1035V1017.4C574.225 1015.46 574.801 1013.91 575.953 1012.76C577.105 1011.59 578.747 1011 580.881 1011C581.606 1011 582.299 1011.07 582.961 1011.22C583.643 1011.37 584.219 1011.61 584.689 1011.93L583.377 1015.54C583.099 1015.35 582.79 1015.2 582.449 1015.1C582.107 1014.99 581.745 1014.94 581.361 1014.94C580.635 1014.94 580.07 1015.15 579.665 1015.58C579.281 1015.98 579.089 1016.6 579.089 1017.43V1019.03L579.217 1021.18V1035H574.225ZM571.569 1022.01V1018.17H583.505V1022.01H571.569ZM593.965 1035.26C592.13 1035.26 590.498 1034.87 589.069 1034.1C587.661 1033.34 586.541 1032.29 585.709 1030.97C584.898 1029.62 584.493 1028.1 584.493 1026.39C584.493 1024.66 584.898 1023.14 585.709 1021.82C586.541 1020.47 587.661 1019.43 589.069 1018.68C590.498 1017.91 592.13 1017.53 593.965 1017.53C595.778 1017.53 597.399 1017.91 598.829 1018.68C600.258 1019.43 601.378 1020.46 602.189 1021.78C602.999 1023.11 603.405 1024.64 603.405 1026.39C603.405 1028.1 602.999 1029.62 602.189 1030.97C601.378 1032.29 600.258 1033.34 598.829 1034.1C597.399 1034.87 595.778 1035.26 593.965 1035.26ZM593.965 1031.16C594.797 1031.16 595.543 1030.97 596.205 1030.58C596.866 1030.2 597.389 1029.66 597.773 1028.95C598.157 1028.23 598.349 1027.37 598.349 1026.39C598.349 1025.39 598.157 1024.54 597.773 1023.83C597.389 1023.13 596.866 1022.58 596.205 1022.2C595.543 1021.82 594.797 1021.62 593.965 1021.62C593.133 1021.62 592.386 1021.82 591.725 1022.2C591.063 1022.58 590.53 1023.13 590.125 1023.83C589.741 1024.54 589.549 1025.39 589.549 1026.39C589.549 1027.37 589.741 1028.23 590.125 1028.95C590.53 1029.66 591.063 1030.2 591.725 1030.58C592.386 1030.97 593.133 1031.16 593.965 1031.16ZM606.742 1035V1017.78H611.51V1022.65L610.838 1021.24C611.35 1020.02 612.171 1019.11 613.302 1018.49C614.432 1017.85 615.808 1017.53 617.43 1017.53V1022.14C617.216 1022.11 617.024 1022.1 616.854 1022.1C616.683 1022.08 616.502 1022.07 616.31 1022.07C614.944 1022.07 613.835 1022.47 612.982 1023.26C612.15 1024.02 611.734 1025.23 611.734 1026.87V1035H606.742ZM628.497 1035V1031.64L642.353 1014.94L642.993 1016.82H628.753V1012.6H647.601V1015.96L633.777 1032.66L633.137 1030.78H648.081V1035H628.497ZM661.677 1035V1031.64L661.357 1030.9V1024.89C661.357 1023.82 661.026 1022.99 660.365 1022.39C659.725 1021.79 658.733 1021.5 657.389 1021.5C656.471 1021.5 655.565 1021.65 654.669 1021.94C653.794 1022.22 653.047 1022.61 652.429 1023.1L650.637 1019.61C651.575 1018.95 652.706 1018.43 654.029 1018.07C655.351 1017.71 656.695 1017.53 658.061 1017.53C660.685 1017.53 662.722 1018.15 664.173 1019.38C665.623 1020.62 666.349 1022.55 666.349 1025.18V1035H661.677ZM656.429 1035.26C655.085 1035.26 653.933 1035.03 652.973 1034.58C652.013 1034.11 651.277 1033.49 650.765 1032.7C650.253 1031.91 649.997 1031.02 649.997 1030.04C649.997 1029.02 650.242 1028.12 650.733 1027.35C651.245 1026.58 652.045 1025.99 653.133 1025.56C654.221 1025.11 655.639 1024.89 657.389 1024.89H661.965V1027.8H657.933C656.759 1027.8 655.949 1027.99 655.501 1028.38C655.074 1028.76 654.861 1029.24 654.861 1029.82C654.861 1030.46 655.106 1030.97 655.597 1031.35C656.109 1031.71 656.802 1031.9 657.677 1031.9C658.509 1031.9 659.255 1031.7 659.917 1031.32C660.578 1030.91 661.058 1030.33 661.357 1029.56L662.125 1031.86C661.762 1032.97 661.101 1033.82 660.141 1034.39C659.181 1034.97 657.943 1035.26 656.429 1035.26ZM674.995 1031.48L675.123 1025.4L683.155 1017.78H689.107L681.395 1025.62L678.803 1027.74L674.995 1031.48ZM670.867 1035V1011.26H675.859V1035H670.867ZM683.699 1035L677.875 1027.77L681.011 1023.9L689.747 1035H683.699ZM702.239 1035V1031.64L701.919 1030.9V1024.89C701.919 1023.82 701.588 1022.99 700.927 1022.39C700.287 1021.79 699.295 1021.5 697.951 1021.5C697.034 1021.5 696.127 1021.65 695.231 1021.94C694.356 1022.22 693.61 1022.61 692.991 1023.1L691.199 1019.61C692.138 1018.95 693.268 1018.43 694.591 1018.07C695.914 1017.71 697.258 1017.53 698.623 1017.53C701.247 1017.53 703.284 1018.15 704.735 1019.38C706.186 1020.62 706.911 1022.55 706.911 1025.18V1035H702.239ZM696.991 1035.26C695.647 1035.26 694.495 1035.03 693.535 1034.58C692.575 1034.11 691.839 1033.49 691.327 1032.7C690.815 1031.91 690.559 1031.02 690.559 1030.04C690.559 1029.02 690.804 1028.12 691.295 1027.35C691.807 1026.58 692.607 1025.99 693.695 1025.56C694.783 1025.11 696.202 1024.89 697.951 1024.89H702.527V1027.8H698.495C697.322 1027.8 696.511 1027.99 696.063 1028.38C695.636 1028.76 695.423 1029.24 695.423 1029.82C695.423 1030.46 695.668 1030.97 696.159 1031.35C696.671 1031.71 697.364 1031.9 698.239 1031.9C699.071 1031.9 699.818 1031.7 700.479 1031.32C701.14 1030.91 701.62 1030.33 701.919 1029.56L702.687 1031.86C702.324 1032.97 701.663 1033.82 700.703 1034.39C699.743 1034.97 698.506 1035.26 696.991 1035.26ZM718.469 1035.26C716.442 1035.26 714.864 1034.74 713.733 1033.72C712.602 1032.67 712.037 1031.13 712.037 1029.08V1013.98H717.029V1029.02C717.029 1029.74 717.221 1030.31 717.605 1030.71C717.989 1031.1 718.512 1031.29 719.173 1031.29C719.962 1031.29 720.634 1031.07 721.189 1030.65L722.533 1034.17C722.021 1034.53 721.402 1034.81 720.677 1035C719.973 1035.17 719.237 1035.26 718.469 1035.26ZM709.381 1022.01V1018.17H721.317V1022.01H709.381ZM728.119 1041.21H723.351C724.738 1038.8 725.73 1036.38 726.327 1033.94C726.946 1031.49 727.255 1028.92 727.255 1026.23C727.255 1023.54 726.946 1020.98 726.327 1018.55C725.73 1016.1 724.738 1013.67 723.351 1011.26H728.119C729.442 1013.15 730.445 1015.39 731.127 1017.98C731.81 1020.54 732.151 1023.29 732.151 1026.23C732.151 1029.18 731.81 1031.93 731.127 1034.49C730.445 1037.03 729.442 1039.27 728.119 1041.21Z" fill="black"/>
<path d="M855.66 1028V1014H862.02C863.54 1014 864.88 1014.29 866.04 1014.88C867.2 1015.45 868.107 1016.26 868.76 1017.3C869.413 1018.34 869.74 1019.57 869.74 1021C869.74 1022.41 869.413 1023.65 868.76 1024.7C868.107 1025.74 867.2 1026.55 866.04 1027.14C864.88 1027.71 863.54 1028 862.02 1028H855.66ZM858.9 1025.34H861.86C862.793 1025.34 863.6 1025.17 864.28 1024.82C864.973 1024.46 865.507 1023.95 865.88 1023.3C866.267 1022.65 866.46 1021.88 866.46 1021C866.46 1020.11 866.267 1019.34 865.88 1018.7C865.507 1018.05 864.973 1017.55 864.28 1017.2C863.6 1016.84 862.793 1016.66 861.86 1016.66H858.9V1025.34ZM877.083 1028.16C875.937 1028.16 874.917 1027.92 874.023 1027.44C873.143 1026.96 872.443 1026.31 871.923 1025.48C871.417 1024.64 871.163 1023.69 871.163 1022.62C871.163 1021.54 871.417 1020.59 871.923 1019.76C872.443 1018.92 873.143 1018.27 874.023 1017.8C874.917 1017.32 875.937 1017.08 877.083 1017.08C878.217 1017.08 879.23 1017.32 880.123 1017.8C881.017 1018.27 881.717 1018.91 882.223 1019.74C882.73 1020.57 882.983 1021.53 882.983 1022.62C882.983 1023.69 882.73 1024.64 882.223 1025.48C881.717 1026.31 881.017 1026.96 880.123 1027.44C879.23 1027.92 878.217 1028.16 877.083 1028.16ZM877.083 1025.6C877.603 1025.6 878.07 1025.48 878.483 1025.24C878.897 1025 879.223 1024.66 879.463 1024.22C879.703 1023.77 879.823 1023.23 879.823 1022.62C879.823 1021.99 879.703 1021.46 879.463 1021.02C879.223 1020.58 878.897 1020.24 878.483 1020C878.07 1019.76 877.603 1019.64 877.083 1019.64C876.563 1019.64 876.097 1019.76 875.683 1020C875.27 1020.24 874.937 1020.58 874.683 1021.02C874.443 1021.46 874.323 1021.99 874.323 1022.62C874.323 1023.23 874.443 1023.77 874.683 1024.22C874.937 1024.66 875.27 1025 875.683 1025.24C876.097 1025.48 876.563 1025.6 877.083 1025.6ZM885.069 1028V1013.16H888.189V1028H885.069ZM891.085 1028V1013.16H894.205V1028H891.085ZM903.7 1028V1025.9L903.5 1025.44V1021.68C903.5 1021.01 903.293 1020.49 902.88 1020.12C902.48 1019.75 901.86 1019.56 901.02 1019.56C900.447 1019.56 899.88 1019.65 899.32 1019.84C898.773 1020.01 898.307 1020.25 897.92 1020.56L896.8 1018.38C897.387 1017.97 898.093 1017.65 898.92 1017.42C899.747 1017.19 900.587 1017.08 901.44 1017.08C903.08 1017.08 904.353 1017.47 905.26 1018.24C906.167 1019.01 906.62 1020.22 906.62 1021.86V1028H903.7ZM900.42 1028.16C899.58 1028.16 898.86 1028.02 898.26 1027.74C897.66 1027.45 897.2 1027.05 896.88 1026.56C896.56 1026.07 896.4 1025.51 896.4 1024.9C896.4 1024.26 896.553 1023.7 896.86 1023.22C897.18 1022.74 897.68 1022.37 898.36 1022.1C899.04 1021.82 899.927 1021.68 901.02 1021.68H903.88V1023.5H901.36C900.627 1023.5 900.12 1023.62 899.84 1023.86C899.573 1024.1 899.44 1024.4 899.44 1024.76C899.44 1025.16 899.593 1025.48 899.9 1025.72C900.22 1025.95 900.653 1026.06 901.2 1026.06C901.72 1026.06 902.187 1025.94 902.6 1025.7C903.013 1025.45 903.313 1025.08 903.5 1024.6L903.98 1026.04C903.753 1026.73 903.34 1027.26 902.74 1027.62C902.14 1027.98 901.367 1028.16 900.42 1028.16ZM909.444 1028V1017.24H912.424V1020.28L912.004 1019.4C912.324 1018.64 912.837 1018.07 913.544 1017.68C914.251 1017.28 915.111 1017.08 916.124 1017.08V1019.96C915.991 1019.95 915.871 1019.94 915.764 1019.94C915.657 1019.93 915.544 1019.92 915.424 1019.92C914.571 1019.92 913.877 1020.17 913.344 1020.66C912.824 1021.14 912.564 1021.89 912.564 1022.92V1028H909.444ZM926.301 1025.8L926.381 1022L931.401 1017.24H935.121L930.301 1022.14L928.681 1023.46L926.301 1025.8ZM923.721 1028V1013.16H926.841V1028H923.721ZM931.741 1028L928.101 1023.48L930.061 1021.06L935.521 1028H931.741ZM936.924 1028V1017.24H940.044V1028H936.924ZM938.484 1015.74C937.911 1015.74 937.444 1015.57 937.084 1015.24C936.724 1014.91 936.544 1014.49 936.544 1014C936.544 1013.51 936.724 1013.09 937.084 1012.76C937.444 1012.43 937.911 1012.26 938.484 1012.26C939.058 1012.26 939.524 1012.42 939.884 1012.74C940.244 1013.05 940.424 1013.45 940.424 1013.94C940.424 1014.46 940.244 1014.89 939.884 1015.24C939.538 1015.57 939.071 1015.74 938.484 1015.74ZM949.48 1017.08C950.333 1017.08 951.093 1017.25 951.76 1017.6C952.44 1017.93 952.973 1018.45 953.36 1019.16C953.747 1019.85 953.94 1020.75 953.94 1021.84V1028H950.82V1022.32C950.82 1021.45 950.627 1020.81 950.24 1020.4C949.867 1019.99 949.333 1019.78 948.64 1019.78C948.147 1019.78 947.7 1019.89 947.3 1020.1C946.913 1020.3 946.607 1020.61 946.38 1021.04C946.167 1021.47 946.06 1022.01 946.06 1022.68V1028H942.94V1017.24H945.92V1020.22L945.36 1019.32C945.747 1018.6 946.3 1018.05 947.02 1017.66C947.74 1017.27 948.56 1017.08 949.48 1017.08ZM961.466 1028.16C960.453 1028.16 959.54 1027.93 958.726 1027.48C957.913 1027.01 957.266 1026.37 956.786 1025.54C956.32 1024.71 956.086 1023.74 956.086 1022.62C956.086 1021.49 956.32 1020.51 956.786 1019.68C957.266 1018.85 957.913 1018.21 958.726 1017.76C959.54 1017.31 960.453 1017.08 961.466 1017.08C962.373 1017.08 963.166 1017.28 963.846 1017.68C964.526 1018.08 965.053 1018.69 965.426 1019.5C965.8 1020.31 965.986 1021.35 965.986 1022.62C965.986 1023.87 965.806 1024.91 965.446 1025.74C965.086 1026.55 964.566 1027.16 963.886 1027.56C963.22 1027.96 962.413 1028.16 961.466 1028.16ZM962.006 1025.6C962.513 1025.6 962.973 1025.48 963.386 1025.24C963.8 1025 964.126 1024.66 964.366 1024.22C964.62 1023.77 964.746 1023.23 964.746 1022.62C964.746 1021.99 964.62 1021.46 964.366 1021.02C964.126 1020.58 963.8 1020.24 963.386 1020C962.973 1019.76 962.513 1019.64 962.006 1019.64C961.486 1019.64 961.02 1019.76 960.606 1020C960.193 1020.24 959.86 1020.58 959.606 1021.02C959.366 1021.46 959.246 1021.99 959.246 1022.62C959.246 1023.23 959.366 1023.77 959.606 1024.22C959.86 1024.66 960.193 1025 960.606 1025.24C961.02 1025.48 961.486 1025.6 962.006 1025.6ZM964.826 1028V1025.8L964.886 1022.6L964.686 1019.42V1013.16H967.806V1028H964.826ZM977.294 1028V1025.9L977.094 1025.44V1021.68C977.094 1021.01 976.887 1020.49 976.474 1020.12C976.074 1019.75 975.454 1019.56 974.614 1019.56C974.041 1019.56 973.474 1019.65 972.914 1019.84C972.367 1020.01 971.901 1020.25 971.514 1020.56L970.394 1018.38C970.981 1017.97 971.687 1017.65 972.514 1017.42C973.341 1017.19 974.181 1017.08 975.034 1017.08C976.674 1017.08 977.947 1017.47 978.854 1018.24C979.761 1019.01 980.214 1020.22 980.214 1021.86V1028H977.294ZM974.014 1028.16C973.174 1028.16 972.454 1028.02 971.854 1027.74C971.254 1027.45 970.794 1027.05 970.474 1026.56C970.154 1026.07 969.994 1025.51 969.994 1024.9C969.994 1024.26 970.147 1023.7 970.454 1023.22C970.774 1022.74 971.274 1022.37 971.954 1022.1C972.634 1021.82 973.521 1021.68 974.614 1021.68H977.474V1023.5H974.954C974.221 1023.5 973.714 1023.62 973.434 1023.86C973.167 1024.1 973.034 1024.4 973.034 1024.76C973.034 1025.16 973.187 1025.48 973.494 1025.72C973.814 1025.95 974.247 1026.06 974.794 1026.06C975.314 1026.06 975.781 1025.94 976.194 1025.7C976.607 1025.45 976.907 1025.08 977.094 1024.6L977.574 1026.04C977.347 1026.73 976.934 1027.26 976.334 1027.62C975.734 1027.98 974.961 1028.16 974.014 1028.16ZM992.322 1028.16C991.402 1028.16 990.515 1028.05 989.662 1027.84C988.822 1027.61 988.155 1027.33 987.662 1027L988.702 1024.76C989.195 1025.07 989.775 1025.32 990.442 1025.52C991.122 1025.71 991.788 1025.8 992.442 1025.8C993.162 1025.8 993.668 1025.71 993.962 1025.54C994.268 1025.37 994.422 1025.13 994.422 1024.82C994.422 1024.57 994.302 1024.38 994.062 1024.26C993.835 1024.13 993.528 1024.03 993.142 1023.96C992.755 1023.89 992.328 1023.83 991.862 1023.76C991.408 1023.69 990.948 1023.61 990.482 1023.5C990.015 1023.38 989.588 1023.21 989.202 1022.98C988.815 1022.75 988.502 1022.45 988.262 1022.06C988.035 1021.67 987.922 1021.17 987.922 1020.56C987.922 1019.88 988.115 1019.28 988.502 1018.76C988.902 1018.24 989.475 1017.83 990.222 1017.54C990.968 1017.23 991.862 1017.08 992.902 1017.08C993.635 1017.08 994.382 1017.16 995.142 1017.32C995.902 1017.48 996.535 1017.71 997.042 1018.02L996.002 1020.24C995.482 1019.93 994.955 1019.73 994.422 1019.62C993.902 1019.5 993.395 1019.44 992.902 1019.44C992.208 1019.44 991.702 1019.53 991.382 1019.72C991.062 1019.91 990.902 1020.15 990.902 1020.44C990.902 1020.71 991.015 1020.91 991.242 1021.04C991.482 1021.17 991.795 1021.28 992.182 1021.36C992.568 1021.44 992.988 1021.51 993.442 1021.58C993.908 1021.63 994.375 1021.72 994.842 1021.84C995.308 1021.96 995.728 1022.13 996.102 1022.36C996.488 1022.57 996.802 1022.87 997.042 1023.26C997.282 1023.63 997.402 1024.13 997.402 1024.74C997.402 1025.41 997.202 1026 996.802 1026.52C996.402 1027.03 995.822 1027.43 995.062 1027.72C994.315 1028.01 993.402 1028.16 992.322 1028.16ZM999.327 1028V1017.24H1002.45V1028H999.327ZM1000.89 1015.74C1000.31 1015.74 999.847 1015.57 999.487 1015.24C999.127 1014.91 998.947 1014.49 998.947 1014C998.947 1013.51 999.127 1013.09 999.487 1012.76C999.847 1012.43 1000.31 1012.26 1000.89 1012.26C1001.46 1012.26 1001.93 1012.42 1002.29 1012.74C1002.65 1013.05 1002.83 1013.45 1002.83 1013.94C1002.83 1014.46 1002.65 1014.89 1002.29 1015.24C1001.94 1015.57 1001.47 1015.74 1000.89 1015.74ZM1010.4 1032.04C1009.39 1032.04 1008.41 1031.91 1007.46 1031.66C1006.53 1031.42 1005.75 1031.05 1005.12 1030.56L1006.36 1028.32C1006.82 1028.69 1007.39 1028.99 1008.08 1029.2C1008.79 1029.43 1009.48 1029.54 1010.16 1029.54C1011.27 1029.54 1012.07 1029.29 1012.56 1028.8C1013.07 1028.31 1013.32 1027.57 1013.32 1026.6V1024.98L1013.52 1022.28L1013.48 1019.56V1017.24H1016.44V1026.2C1016.44 1028.2 1015.92 1029.67 1014.88 1030.62C1013.84 1031.57 1012.35 1032.04 1010.4 1032.04ZM1009.92 1027.48C1008.92 1027.48 1008.02 1027.27 1007.2 1026.84C1006.4 1026.4 1005.76 1025.79 1005.26 1025.02C1004.78 1024.23 1004.54 1023.32 1004.54 1022.28C1004.54 1021.23 1004.78 1020.31 1005.26 1019.54C1005.76 1018.75 1006.4 1018.15 1007.2 1017.72C1008.02 1017.29 1008.92 1017.08 1009.92 1017.08C1010.83 1017.08 1011.63 1017.27 1012.32 1017.64C1013.02 1018 1013.56 1018.57 1013.94 1019.34C1014.33 1020.1 1014.52 1021.08 1014.52 1022.28C1014.52 1023.47 1014.33 1024.45 1013.94 1025.22C1013.56 1025.98 1013.02 1026.55 1012.32 1026.92C1011.63 1027.29 1010.83 1027.48 1009.92 1027.48ZM1010.54 1024.92C1011.09 1024.92 1011.58 1024.81 1012 1024.6C1012.43 1024.37 1012.76 1024.06 1013 1023.66C1013.24 1023.26 1013.36 1022.8 1013.36 1022.28C1013.36 1021.75 1013.24 1021.29 1013 1020.9C1012.76 1020.5 1012.43 1020.19 1012 1019.98C1011.58 1019.75 1011.09 1019.64 1010.54 1019.64C1010 1019.64 1009.51 1019.75 1009.08 1019.98C1008.66 1020.19 1008.32 1020.5 1008.06 1020.9C1007.82 1021.29 1007.7 1021.75 1007.7 1022.28C1007.7 1022.8 1007.82 1023.26 1008.06 1023.66C1008.32 1024.06 1008.66 1024.37 1009.08 1024.6C1009.51 1024.81 1010 1024.92 1010.54 1024.92ZM1025.89 1017.08C1026.74 1017.08 1027.5 1017.25 1028.17 1017.6C1028.85 1017.93 1029.38 1018.45 1029.77 1019.16C1030.15 1019.85 1030.35 1020.75 1030.35 1021.84V1028H1027.23V1022.32C1027.23 1021.45 1027.03 1020.81 1026.65 1020.4C1026.27 1019.99 1025.74 1019.78 1025.05 1019.78C1024.55 1019.78 1024.11 1019.89 1023.71 1020.1C1023.32 1020.3 1023.01 1020.61 1022.79 1021.04C1022.57 1021.47 1022.47 1022.01 1022.47 1022.68V1028H1019.35V1017.24H1022.33V1020.22L1021.77 1019.32C1022.15 1018.6 1022.71 1018.05 1023.43 1017.66C1024.15 1017.27 1024.97 1017.08 1025.89 1017.08Z" fill="black"/>
<path d="M429.8 565V554.5L473.1 502.3L475.1 508.2H430.6V495H489.5V505.5L446.3 557.7L444.3 551.8H491V565H429.8ZM533.485 565V554.5L532.485 552.2V533.4C532.485 530.067 531.452 527.467 529.385 525.6C527.385 523.733 524.285 522.8 520.085 522.8C517.218 522.8 514.385 523.267 511.585 524.2C508.852 525.067 506.518 526.267 504.585 527.8L498.985 516.9C501.918 514.833 505.452 513.233 509.585 512.1C513.718 510.967 517.918 510.4 522.185 510.4C530.385 510.4 536.752 512.333 541.285 516.2C545.818 520.067 548.085 526.1 548.085 534.3V565H533.485ZM517.085 565.8C512.885 565.8 509.285 565.1 506.285 563.7C503.285 562.233 500.985 560.267 499.385 557.8C497.785 555.333 496.985 552.567 496.985 549.5C496.985 546.3 497.752 543.5 499.285 541.1C500.885 538.7 503.385 536.833 506.785 535.5C510.185 534.1 514.618 533.4 520.085 533.4H534.385V542.5H521.785C518.118 542.5 515.585 543.1 514.185 544.3C512.852 545.5 512.185 547 512.185 548.8C512.185 550.8 512.952 552.4 514.485 553.6C516.085 554.733 518.252 555.3 520.985 555.3C523.585 555.3 525.918 554.7 527.985 553.5C530.052 552.233 531.552 550.4 532.485 548L534.885 555.2C533.752 558.667 531.685 561.3 528.685 563.1C525.685 564.9 521.818 565.8 517.085 565.8ZM575.104 554L575.504 535L600.604 511.2H619.204L595.104 535.7L587.004 542.3L575.104 554ZM562.204 565V490.8H577.804V565H562.204ZM602.304 565L584.104 542.4L593.904 530.3L621.204 565H602.304ZM660.243 565V554.5L659.243 552.2V533.4C659.243 530.067 658.21 527.467 656.143 525.6C654.143 523.733 651.043 522.8 646.843 522.8C643.976 522.8 641.143 523.267 638.343 524.2C635.61 525.067 633.276 526.267 631.343 527.8L625.743 516.9C628.676 514.833 632.21 513.233 636.343 512.1C640.476 510.967 644.676 510.4 648.943 510.4C657.143 510.4 663.51 512.333 668.043 516.2C672.576 520.067 674.843 526.1 674.843 534.3V565H660.243ZM643.843 565.8C639.643 565.8 636.043 565.1 633.043 563.7C630.043 562.233 627.743 560.267 626.143 557.8C624.543 555.333 623.743 552.567 623.743 549.5C623.743 546.3 624.51 543.5 626.043 541.1C627.643 538.7 630.143 536.833 633.543 535.5C636.943 534.1 641.376 533.4 646.843 533.4H661.143V542.5H648.543C644.876 542.5 642.343 543.1 640.943 544.3C639.61 545.5 638.943 547 638.943 548.8C638.943 550.8 639.71 552.4 641.243 553.6C642.843 554.733 645.01 555.3 647.743 555.3C650.343 555.3 652.676 554.7 654.743 553.5C656.81 552.233 658.31 550.4 659.243 548L661.643 555.2C660.51 558.667 658.443 561.3 655.443 563.1C652.443 564.9 648.576 565.8 643.843 565.8ZM710.962 565.8C704.628 565.8 699.695 564.2 696.162 561C692.628 557.733 690.862 552.9 690.862 546.5V499.3H706.462V546.3C706.462 548.567 707.062 550.333 708.262 551.6C709.462 552.8 711.095 553.4 713.162 553.4C715.628 553.4 717.728 552.733 719.462 551.4L723.662 562.4C722.062 563.533 720.128 564.4 717.862 565C715.662 565.533 713.362 565.8 710.962 565.8ZM682.562 524.4V512.4H719.862V524.4H682.562ZM767.019 565.6C761.752 565.6 756.885 564.733 752.419 563C747.952 561.2 744.085 558.7 740.819 555.5C737.552 552.3 734.985 548.533 733.119 544.2C731.319 539.867 730.419 535.133 730.419 530C730.419 524.867 731.319 520.133 733.119 515.8C734.985 511.467 737.552 507.7 740.819 504.5C744.152 501.3 748.052 498.833 752.519 497.1C756.985 495.3 761.852 494.4 767.119 494.4C772.185 494.4 776.952 495.267 781.419 497C785.885 498.667 789.652 501.2 792.719 504.6L788.019 509.3C785.152 506.367 781.985 504.267 778.519 503C775.052 501.667 771.319 501 767.319 501C763.119 501 759.219 501.733 755.619 503.2C752.019 504.6 748.885 506.633 746.219 509.3C743.552 511.9 741.452 514.967 739.919 518.5C738.452 521.967 737.719 525.8 737.719 530C737.719 534.2 738.452 538.067 739.919 541.6C741.452 545.067 743.552 548.133 746.219 550.8C748.885 553.4 752.019 555.433 755.619 556.9C759.219 558.3 763.119 559 767.319 559C771.319 559 775.052 558.333 778.519 557C781.985 555.667 785.152 553.533 788.019 550.6L792.719 555.3C789.652 558.7 785.885 561.267 781.419 563C776.952 564.733 772.152 565.6 767.019 565.6ZM833.794 512C838.06 512 841.794 512.833 844.994 514.5C848.26 516.1 850.794 518.567 852.594 521.9C854.46 525.233 855.394 529.433 855.394 534.5V565H848.294V535.2C848.294 529.667 846.894 525.5 844.094 522.7C841.36 519.833 837.494 518.4 832.494 518.4C828.76 518.4 825.494 519.167 822.694 520.7C819.96 522.167 817.827 524.333 816.294 527.2C814.827 530 814.094 533.4 814.094 537.4V565H806.994V490.8H814.094V526.9L812.694 524.2C814.36 520.4 817.027 517.433 820.694 515.3C824.36 513.1 828.727 512 833.794 512ZM907.472 565V553.4L907.172 551.5V532.1C907.172 527.633 905.905 524.2 903.372 521.8C900.905 519.4 897.205 518.2 892.272 518.2C888.872 518.2 885.639 518.767 882.572 519.9C879.505 521.033 876.905 522.533 874.772 524.4L871.572 519.1C874.239 516.833 877.439 515.1 881.172 513.9C884.905 512.633 888.839 512 892.972 512C899.772 512 905.005 513.7 908.672 517.1C912.405 520.433 914.272 525.533 914.272 532.4V565H907.472ZM889.372 565.5C885.439 565.5 882.005 564.867 879.072 563.6C876.205 562.267 874.005 560.467 872.472 558.2C870.939 555.867 870.172 553.2 870.172 550.2C870.172 547.467 870.805 545 872.072 542.8C873.405 540.533 875.539 538.733 878.472 537.4C881.472 536 885.472 535.3 890.472 535.3H908.572V540.6H890.672C885.605 540.6 882.072 541.5 880.072 543.3C878.139 545.1 877.172 547.333 877.172 550C877.172 553 878.339 555.4 880.672 557.2C883.005 559 886.272 559.9 890.472 559.9C894.472 559.9 897.905 559 900.772 557.2C903.705 555.333 905.839 552.667 907.172 549.2L908.772 554.1C907.439 557.567 905.105 560.333 901.772 562.4C898.505 564.467 894.372 565.5 889.372 565.5ZM933.556 565V512.5H940.656V565H933.556ZM937.156 500.9C935.69 500.9 934.456 500.4 933.456 499.4C932.456 498.4 931.956 497.2 931.956 495.8C931.956 494.4 932.456 493.233 933.456 492.3C934.456 491.3 935.69 490.8 937.156 490.8C938.623 490.8 939.856 491.267 940.856 492.2C941.856 493.133 942.356 494.3 942.356 495.7C942.356 497.167 941.856 498.4 940.856 499.4C939.923 500.4 938.69 500.9 937.156 500.9ZM987.212 512C991.478 512 995.212 512.833 998.412 514.5C1001.68 516.1 1004.21 518.567 1006.01 521.9C1007.88 525.233 1008.81 529.433 1008.81 534.5V565H1001.71V535.2C1001.71 529.667 1000.31 525.5 997.512 522.7C994.778 519.833 990.912 518.4 985.912 518.4C982.178 518.4 978.912 519.167 976.112 520.7C973.378 522.167 971.245 524.333 969.712 527.2C968.245 530 967.512 533.4 967.512 537.4V565H960.412V512.5H967.212V526.9L966.112 524.2C967.778 520.4 970.445 517.433 974.112 515.3C977.778 513.1 982.145 512 987.212 512Z" fill="#17163E"/>
</svg>
