<svg width="400" height="400" viewBox="0 0 400 400" fill="none" xmlns="http://www.w3.org/2000/svg">
<rect width="400" height="400" rx="8" fill="white"/>
<path d="M164.435 186.563L109.023 116.19C104.968 111.04 108.636 103.483 115.19 103.483H285.935C292.184 103.483 295.928 110.431 292.491 115.65L217.05 230.231C214.323 234.373 208.486 234.98 204.965 231.488L177.831 204.574" stroke="black" stroke-width="10"/>
<path d="M252.76 207.33L321.629 101.043C325.664 94.8143 321.194 86.5904 313.772 86.5904H220.814C215.644 86.5904 211.453 82.399 211.453 77.2286V59" stroke="black" stroke-width="10"/>
<path d="M150.042 195.721L76.7796 101.707C71.9886 95.5586 76.3697 86.5904 84.1641 86.5904H169.464C174.634 86.5904 178.826 82.399 178.826 77.2286V59" stroke="black" stroke-width="10"/>
<path d="M252.447 202.949L324.723 299.021C329.365 305.191 324.963 314.011 317.242 314.011H220.897C215.726 314.011 211.535 318.202 211.535 323.373V341.601" stroke="black" stroke-width="10"/>
<path d="M150.042 191.142L83.5377 299.761C79.7183 305.999 84.2074 314.011 91.5219 314.011H169.464C174.634 314.011 178.826 318.202 178.826 323.373V341.601" stroke="black" stroke-width="10"/>
<path d="M239.009 215.347L290.859 283.193C294.807 288.359 291.124 295.81 284.622 295.81H119.867C113.671 295.81 109.917 288.968 113.246 283.742L186.082 169.406C188.801 165.138 194.789 164.52 198.322 168.142L224.247 194.719" stroke="black" stroke-width="10"/>
</svg>
